<svg width="186" height="43" viewBox="0 0 186 43" fill="none" xmlns="http://www.w3.org/2000/svg">
<path d="M95.4458 36.112L95.4365 7.46582C95.7107 7.0248 97.1552 7.38239 97.5997 7.39192C101.21 7.46463 104.827 7.31087 108.437 7.40622C109.03 7.79599 108.618 8.51832 108.632 8.99629C108.661 10.0154 109.063 11.4934 108.457 12.3934H100.873L100.698 12.5721V18.8895C100.698 18.911 100.968 19.1875 100.989 19.1875H111.957L112.132 19.3663V24.0149L100.698 24.4917V35.9344L100.523 36.1132H95.447L95.4458 36.112Z" fill="black"/>
<path d="M122.049 31.4045C122.128 30.9242 122.873 31.0517 123.218 30.9301C125.594 30.0946 126.498 27.5617 124.735 25.5616C123.38 24.024 121.71 24.3148 119.921 23.9238C115.585 22.9762 113.065 19.9225 113.299 15.3144C113.803 5.41758 128.551 4.6452 130.397 13.6993C130.519 14.2952 130.85 15.5456 130.132 15.7041C129.761 15.7864 126.105 15.7768 125.898 15.6731C125.323 14.5909 125.187 13.499 124.02 12.8244C120.869 11.0055 116.852 14.2702 118.758 17.6029C119.974 19.7282 122.346 19.0511 124.252 19.5005C129.145 20.6555 131.411 25.1861 130.418 30.0612C129.664 33.7634 125.615 36.3285 122.049 36.1128C122.215 34.6967 121.826 32.7526 122.049 31.4045Z" fill="black"/>
<path d="M77.6821 14.7467L65.2021 20.5324C64.201 20.9961 60.7589 22.927 59.92 22.8913C59.6108 22.8782 58.6074 22.3585 58.2655 22.1857C54.5831 20.3214 50.8727 18.0484 47.2452 16.0411C46.0492 15.3784 43.2419 14.2413 42.3645 13.3998C41.9164 12.9707 42.235 12.7513 42.627 12.4891C43.6713 11.7894 45.6653 10.9825 46.8811 10.3984C49.6768 9.05391 52.5039 7.81904 55.3077 6.49121C56.1711 6.08118 59.6248 4.16809 60.2666 4.16213C61.0821 4.15498 63.7249 5.92861 64.607 6.41015C68.9136 8.76188 73.2599 11.0409 77.5199 13.482C77.9178 13.7681 77.9119 14.3509 77.6821 14.7455V14.7467ZM44.2255 12.8705C44.1917 13.0851 44.3714 13.2293 44.5184 13.3449C44.9384 13.6775 45.9384 14.1745 46.4564 14.4642C48.3011 15.4928 50.224 16.4094 52.0792 17.4214C54.3696 18.6694 57.0089 20.4216 59.3144 21.4729C60.0087 21.7887 60.1475 21.6743 60.8173 21.4168C62.676 20.7041 64.8019 19.5443 66.6559 18.6801C69.2742 17.4584 71.896 16.1401 74.5341 14.9279C74.8549 14.78 76.0859 14.494 76.0859 14.1209C76.0987 13.9028 75.9202 13.8909 75.8094 13.8003C75.4243 13.4904 74.5597 13.0994 74.0779 12.8276C69.9649 10.4986 65.7785 8.09319 61.5979 5.90953C60.2911 5.22655 60.3459 5.2623 59.0181 5.87139C56.2061 7.16466 53.4373 8.61527 50.6405 9.94787C48.5205 10.9575 46.3876 11.9599 44.2255 12.8717V12.8705Z" fill="black"/>
<path d="M34.6548 14.4201C34.7913 14.5191 34.9173 16.7659 34.5742 17.0496C32.3048 18.1498 29.9993 19.1772 27.731 20.2774C26.5047 20.8722 25.3099 21.5623 24.0836 22.1535C23.6869 22.3454 21.4735 23.057 21.589 23.5338C23.0487 24.3896 24.6717 25.0333 26.234 25.7067C28.5303 26.6973 30.9234 27.5733 33.2021 28.6008C33.453 28.714 34.3887 29.1491 34.5299 29.2707C34.9616 29.6426 34.7808 31.2696 34.6548 31.8227L18.1482 24.4302C17.9416 23.771 17.8611 22.9486 18.5157 22.5445L34.6548 14.4189V14.4201Z" fill="black"/>
<path d="M151.335 14.7161L151.621 14.5361L167.708 22.6343C167.92 23.1492 168.245 24.1719 167.703 24.5545L151.453 31.8206L151.393 29.3175L151.572 29.1435L163.968 23.9275L164.403 23.4233L151.335 16.8628V14.7173V14.7161Z" fill="black"/>
<path d="M148.727 6.3291L150.351 7.26836L150.357 7.50437C145.573 17.2069 140.884 26.9678 136.032 36.6285C135.837 37.0171 135.194 38.9123 134.731 38.8372C134.267 38.3354 133.108 38.3986 133.3 37.5428C137.719 28.6699 141.948 19.6969 146.349 10.8144C146.94 9.62128 147.729 7.75229 148.395 6.70814C148.488 6.56392 148.549 6.39704 148.726 6.33029L148.727 6.3291Z" fill="black"/>
<path d="M42.7192 18.0053C42.9363 17.8539 44.9746 18.9684 45.3527 19.1663C50.2882 21.7528 55.0849 24.629 60.0449 27.1702L60.8932 26.9771C66.2476 24.7839 71.546 21.5847 76.8957 19.4857C77.0591 19.4213 77.6074 19.1925 77.716 19.2425C78.7544 20.2104 77.0941 20.6955 76.3356 21.0579C71.4176 23.4108 66.4238 25.8054 61.4556 28.0272C59.9971 28.6792 59.9679 28.5255 58.6109 27.7912C53.3265 24.9294 48.0923 21.8863 42.7799 19.053C42.431 18.8242 42.6084 18.3402 42.7181 18.0053H42.7192Z" fill="black"/>
<path d="M78.1586 26.3196L60.8142 34.4082L60.2822 34.5262L43.2319 25.2659C42.722 24.8392 42.8013 24.7009 42.9402 24.074C43.0312 23.9917 43.7884 24.341 43.9506 24.4125C48.9468 26.6188 54.0224 30.0504 58.9392 32.5821C59.4106 32.8241 59.8901 33.072 60.3907 33.2484C61.1923 33.0363 61.9787 32.6549 62.7383 32.3199C67.493 30.2221 72.6875 27.1647 77.4807 25.4483C77.623 25.397 78.0337 25.2194 78.1224 25.3792L78.1574 26.3196H78.1586Z" fill="black"/>
<path d="M82.6988 31.3723C83.4583 31.1768 84.9437 31.4057 85.4792 32.0506C86.2236 32.9469 86.184 34.3713 85.4734 35.2796C83.7722 37.4549 80.1715 35.3332 81.3593 32.6263C81.5576 32.1733 82.2379 31.4915 82.6999 31.3735L82.6988 31.3723Z" fill="black"/>
</svg>
