<svg width="1667" height="293" viewBox="0 0 1667 293" fill="none" xmlns="http://www.w3.org/2000/svg">
<path d="M156.87 254.457V52.559C156.87 49.4834 159.349 47 162.418 47H256.605C270.706 47 283.739 49.911 295.327 55.6674C307.376 61.6539 317.06 70.3706 324.135 81.6037C331.259 92.9354 334.87 106.487 334.87 121.881C334.87 137.275 331.275 150.581 324.168 161.962C317.077 173.31 307.376 182.109 295.311 188.095C283.739 193.852 270.706 196.763 256.589 196.763H245.739C242.669 196.763 240.191 199.246 240.191 202.322V254.441C240.191 257.517 237.712 260 234.643 260H162.418C159.349 260 156.87 257.517 156.87 254.441V254.457ZM246.757 127.457C248.135 127.457 249.268 127.227 250.286 126.717C250.532 126.602 250.926 126.404 251.451 125.533C251.55 125.368 252.042 124.431 252.042 121.881C252.042 119.908 251.714 118.674 251.451 118.23C250.959 117.441 250.581 117.211 250.269 117.063C249.252 116.569 248.119 116.322 246.74 116.322H245.722C242.653 116.322 240.174 118.806 240.174 121.881C240.174 124.957 242.653 127.44 245.722 127.44H246.757V127.457Z" fill="white"/>
<path d="M172.87 238.445V69.5552C172.87 66.4817 175.346 64 178.411 64H217.755C220.821 64 223.296 66.4817 223.296 69.5552V238.445C223.296 241.518 220.821 244 217.755 244H178.411C175.346 244 172.87 241.518 172.87 238.445ZM213.723 175.251V149.957C213.723 146.883 216.198 144.402 219.264 144.402H246.247C250.116 144.402 253.69 143.596 256.969 142.002C260.247 140.408 262.903 137.959 264.919 134.672C266.936 131.385 267.952 127.293 267.952 122.411C267.952 117.53 266.936 113.438 264.919 110.15C262.903 106.863 260.247 104.431 256.969 102.82C253.69 101.226 250.116 100.421 246.247 100.421H219.264C216.198 100.421 213.723 97.939 213.723 94.8656V69.5716C213.723 66.4982 216.198 64.0164 219.264 64.0164H256.083C267.69 64.0164 278.149 66.3338 287.477 70.9686C296.805 75.6034 304.198 82.2597 309.674 90.9375C315.133 99.6154 317.87 110.118 317.87 122.411C317.87 134.705 315.133 144.993 309.674 153.753C304.214 162.514 296.805 169.219 287.477 173.854C278.149 178.489 267.674 180.806 256.083 180.806H219.264C216.198 180.806 213.723 178.324 213.723 175.251Z" fill="black"/>
<path d="M409.498 247.355V201.821C409.498 194.832 403.849 189.175 396.87 189.175C389.891 189.175 384.242 194.832 384.242 201.821V247.355C384.242 254.343 378.593 260 371.614 260H313.498C306.519 260 300.87 254.343 300.87 247.355V59.6455C300.87 52.6568 306.519 47 313.498 47H371.614C378.593 47 384.242 52.6568 384.242 59.6455V101.644C384.242 108.632 389.891 114.289 396.87 114.289C403.849 114.289 409.498 108.632 409.498 101.644V59.6455C409.498 52.6568 415.147 47 422.126 47H480.242C487.221 47 492.87 52.6568 492.87 59.6455V247.338C492.87 254.327 487.221 259.984 480.242 259.984H422.126C415.147 259.984 409.498 254.327 409.498 247.338V247.355Z" fill="white"/>
<path d="M316.87 231.378V76.6388C316.87 69.6538 322.514 64 329.486 64H354.734C361.706 64 367.349 69.6538 367.349 76.6388V231.361C367.349 238.346 361.706 244 354.734 244H329.486C322.514 244 316.87 238.346 316.87 231.361V231.378ZM344.382 160.591V143.892C344.382 136.907 350.025 131.253 356.998 131.253H432.462C439.434 131.253 445.077 136.907 445.077 143.892V160.591C445.077 167.576 439.434 173.229 432.462 173.229H356.998C350.025 173.229 344.382 167.576 344.382 160.591ZM425.391 231.378V76.6388C425.391 69.6538 431.035 64 438.007 64H463.255C470.227 64 475.87 69.6538 475.87 76.6388V231.361C475.87 238.346 470.227 244 463.255 244H438.007C431.035 244 425.391 238.346 425.391 231.361V231.378Z" fill="black"/>
<path d="M595.264 255.445L588.263 234.117C587.378 231.42 584.87 229.611 582.05 229.611H551.82C549.016 229.611 546.508 231.404 545.623 234.084L538.426 255.511C537.524 258.175 535.032 259.984 532.229 259.984H459.423C454.833 259.984 451.669 255.379 453.308 251.087L529.147 51.2261C530.114 48.6773 532.54 47 535.262 47H600.313C603.034 47 605.477 48.6937 606.444 51.259L681.447 251.12C683.053 255.412 679.889 260 675.315 260H601.51C598.69 260 596.182 258.175 595.297 255.478L595.264 255.445Z" fill="white"/>
<path d="M477.31 235.093L540.839 68.2235C541.808 65.6763 544.241 64 546.97 64H589.476C592.204 64 594.654 65.6927 595.623 68.2564L658.446 235.126C660.056 239.415 656.884 244 652.298 244H613.934C611.107 244 608.592 242.176 607.705 239.481L561.714 99.6615C560.317 95.4215 563.472 91.0501 567.943 91.0501C572.414 91.0501 575.603 95.4544 574.157 99.7108L526.999 239.53C526.095 242.192 523.596 244 520.785 244H483.441C478.838 244 475.666 239.399 477.31 235.109V235.093ZM518.419 207.09V180.779C518.419 177.147 521.361 174.222 524.977 174.222H612.488C616.104 174.222 619.046 177.164 619.046 180.779V207.09C619.046 210.705 616.104 213.647 612.488 213.647H524.977C521.344 213.647 518.419 210.705 518.419 207.09Z" fill="black"/>
<path d="M751.72 62.9331V66.1065C751.72 81.1846 732.784 87.8275 723.414 76.038L705.166 53.0181C702.151 49.2198 697.581 47 692.749 47H656.743C647.98 47 640.87 54.1362 640.87 62.9331V244.05C640.87 252.847 647.98 259.984 656.743 259.984H708.147C716.911 259.984 724.02 252.847 724.02 244.05C724.02 228.972 742.957 222.33 752.326 234.135L768.052 253.982C771.066 257.78 775.637 260 780.469 260H818.997C827.761 260 834.87 252.864 834.87 244.067V62.9331C834.87 54.1362 827.761 47 818.997 47H767.594C758.83 47 751.72 54.1362 751.72 62.9331ZM802.616 243.541H788.365C783.532 243.541 778.946 241.321 775.948 237.523L735.945 187.06C726.592 175.254 707.639 181.897 707.639 196.991V227.608C707.639 236.405 700.53 243.541 691.766 243.541H673.124C664.361 243.541 657.251 236.405 657.251 227.608V79.3759C657.251 70.579 664.361 63.4428 673.124 63.4428H684.853C689.686 63.4428 694.272 65.6626 697.27 69.4609L739.795 123.114C749.149 134.92 768.101 128.277 768.101 113.199V79.3923C768.101 70.5954 775.211 63.4592 783.974 63.4592H802.616C811.38 63.4592 818.489 70.5954 818.489 79.3923V227.624C818.489 236.421 811.38 243.557 802.616 243.557V243.541Z" fill="white"/>
<path d="M818.87 79.9244V228.076C818.87 236.868 811.727 244 802.922 244H788.603C783.748 244 779.14 241.781 776.128 237.985L735.936 187.55C726.539 175.75 707.496 182.389 707.496 197.476V228.076C707.496 236.868 700.353 244 691.548 244H672.818C664.013 244 656.87 236.868 656.87 228.076V79.9244C656.87 71.1323 664.013 64 672.818 64H684.603C689.458 64 694.066 66.2186 697.078 70.0148L739.804 123.638C749.202 135.438 768.244 128.799 768.244 113.729V79.9408C768.244 71.1487 775.387 64.0164 784.192 64.0164H802.922C811.727 64.0164 818.87 71.1487 818.87 79.9408V79.9244Z" fill="black"/>
<path d="M855.901 241.713V141.182C855.901 131.085 847.69 122.895 837.566 122.895H820.205C810.081 122.895 801.87 114.705 801.87 104.608V65.2872C801.87 55.1898 810.081 47 820.205 47H975.536C985.659 47 993.87 55.1898 993.87 65.2872V104.608C993.87 114.705 985.659 122.895 975.536 122.895H957.927C947.803 122.895 939.593 131.085 939.593 141.182V241.713C939.593 251.81 931.382 260 921.258 260H874.219C864.095 260 855.884 251.81 855.884 241.713H855.901Z" fill="white"/>
<path d="M818.87 88.7001V82.2745C818.87 72.1841 827.028 64 837.086 64H958.654C968.712 64 976.87 72.1841 976.87 82.2745V88.7001C976.87 98.7905 968.712 106.975 958.654 106.975H837.086C827.028 106.975 818.87 98.7905 818.87 88.7001ZM872.553 225.726V82.2745C872.553 72.1841 880.711 64 890.769 64H904.742C914.801 64 922.959 72.1841 922.959 82.2745V225.726C922.959 235.816 914.801 244 904.742 244H890.769C880.711 244 872.553 235.816 872.553 225.726Z" fill="black"/>
<path d="M1065.89 255.445L1058.85 234.117C1057.97 231.42 1055.45 229.611 1052.61 229.611H1022.25C1019.44 229.611 1016.92 231.404 1016.03 234.084L1008.8 255.511C1007.89 258.175 1005.39 259.984 1002.58 259.984H929.452C924.842 259.984 921.664 255.379 923.31 251.087L999.48 51.2261C1000.45 48.6773 1002.89 47 1005.62 47H1070.96C1073.69 47 1076.14 48.6937 1077.12 51.259L1152.44 251.12C1154.06 255.412 1150.88 260 1146.29 260H1072.16C1069.33 260 1066.81 258.175 1065.92 255.478L1065.89 255.445Z" fill="white"/>
<path d="M947.31 235.093L1010.84 68.2235C1011.81 65.6763 1014.24 64 1016.97 64H1059.48C1062.2 64 1064.65 65.6927 1065.62 68.2564L1128.45 235.126C1130.06 239.415 1126.88 244 1122.3 244H1083.93C1081.11 244 1078.59 242.176 1077.7 239.481L1031.71 99.6615C1030.32 95.4215 1033.47 91.0501 1037.94 91.0501C1042.41 91.0501 1045.6 95.4544 1044.16 99.7108L996.999 239.53C996.095 242.192 993.596 244 990.785 244H953.441C948.838 244 945.666 239.399 947.31 235.109V235.093ZM988.419 207.09V180.779C988.419 177.147 991.361 174.222 994.977 174.222H1082.49C1086.1 174.222 1089.05 177.164 1089.05 180.779V207.09C1089.05 210.705 1086.1 213.647 1082.49 213.647H994.977C991.344 213.647 988.419 210.705 988.419 207.09Z" fill="black"/>
<path d="M1183.13 263C1165.83 263 1150.34 260.37 1137.11 255.159C1123.64 249.865 1111.13 241.399 1099.94 230.007L1092.52 222.445C1090.31 220.193 1090.32 216.576 1092.56 214.357L1130.98 175.89C1133.41 173.457 1133.23 169.462 1130.59 167.276C1123.87 161.687 1118.4 154.684 1114.36 146.481C1110.22 138.08 1108.12 128.02 1108.12 116.578C1108.12 101.734 1111.83 88.5661 1119.17 77.4369C1126.46 66.3734 1136.76 57.8581 1149.73 52.1044C1161.9 46.7289 1176.12 44 1191.98 44C1207.85 44 1221.9 46.5152 1235.22 51.4797C1249.05 56.6251 1260.76 64.1542 1270.02 73.8532L1277.27 81.4315C1279.44 83.7001 1279.39 87.2838 1277.18 89.4866L1243.89 122.545C1241.36 125.061 1241.67 129.269 1244.6 131.307C1247.19 133.116 1249.7 135.055 1252.1 137.127C1258.78 142.913 1264.2 150.13 1268.21 158.58C1272.28 167.177 1274.34 177.369 1274.34 188.877C1274.34 212.204 1265.35 231.454 1248.34 244.523C1232.41 256.77 1210.49 262.967 1183.15 262.967V263H1183.13Z" fill="white"/>
<path d="M1183.01 246.967C1167.67 246.967 1154.3 244.733 1142.92 240.265C1133.21 236.454 1124.13 230.705 1115.7 223.017C1113.31 220.849 1113.26 217.103 1115.55 214.82L1139.26 191.133C1141.36 189.03 1144.72 188.931 1146.99 190.853C1152.38 195.387 1157.97 198.985 1163.79 201.613C1171.04 204.898 1178.8 206.541 1187.05 206.541C1193.96 206.541 1199.19 205.49 1202.74 203.387C1206.28 201.284 1208.05 198.377 1208.05 194.664C1208.05 190.952 1206.54 187.88 1203.5 185.449C1200.45 183.001 1196.46 180.817 1191.48 178.878C1186.5 176.94 1181.02 174.969 1175.04 172.948C1169.05 170.928 1163.1 168.48 1157.21 165.622C1151.31 162.764 1145.87 159.265 1140.9 155.142C1135.92 151.019 1131.92 145.877 1128.88 139.733C1125.84 133.59 1124.33 126.05 1124.33 117.114C1124.33 105.484 1127.11 95.4633 1132.68 87.0364C1138.24 78.6095 1146.08 72.1702 1156.21 67.7021C1166.32 63.234 1178.21 61 1191.87 61C1205.54 61 1217.88 63.1519 1229.43 67.4393C1238.81 70.9382 1246.89 75.6198 1253.66 81.5006C1256.18 83.6853 1256.34 87.5292 1253.97 89.8782L1230.1 113.549C1227.98 115.652 1224.61 115.717 1222.34 113.779C1218.08 110.149 1213.82 107.34 1209.56 105.352C1204.01 102.74 1197.92 101.443 1191.35 101.443C1186.12 101.443 1181.94 102.28 1178.83 103.972C1175.71 105.664 1174.15 108.178 1174.15 111.562C1174.15 114.945 1175.66 118.001 1178.7 120.284C1181.74 122.551 1185.74 124.621 1190.72 126.477C1195.69 128.333 1201.18 130.272 1207.16 132.292C1213.15 134.313 1219.08 136.711 1224.99 139.487C1230.89 142.263 1236.33 145.811 1241.3 150.099C1246.26 154.402 1250.27 159.741 1253.32 166.148C1256.36 172.554 1257.87 180.291 1257.87 189.391C1257.87 207.757 1251.33 221.949 1238.27 231.97C1225.2 241.99 1206.78 247 1183.01 247V246.967Z" fill="black"/>
<path d="M1260.84 97H1308.9C1318.81 97 1326.87 103.133 1326.87 110.664V246.336C1326.87 253.867 1318.81 260 1308.9 260H1260.84C1250.93 260 1242.87 253.867 1242.87 246.336V110.664C1242.87 103.133 1250.93 97 1260.84 97Z" fill="white"/>
<path d="M1277.52 110H1292.22C1301.96 110 1309.87 116.097 1309.87 123.582V233.418C1309.87 240.903 1301.96 247 1292.22 247H1277.52C1267.78 247 1259.87 240.903 1259.87 233.418V123.582C1259.87 116.097 1267.78 110 1277.52 110Z" fill="black"/>
<path d="M1429.26 255.445L1422.26 234.117C1421.38 231.42 1418.87 229.611 1416.05 229.611H1385.82C1383.02 229.611 1380.51 231.404 1379.62 234.084L1372.43 255.511C1371.52 258.175 1369.03 259.984 1366.23 259.984H1293.42C1288.83 259.984 1285.67 255.379 1287.31 251.087L1363.15 51.2261C1364.11 48.6773 1366.54 47 1369.26 47H1434.31C1437.03 47 1439.48 48.6937 1440.44 51.259L1515.45 251.12C1517.05 255.412 1513.89 260 1509.32 260H1435.51C1432.69 260 1430.18 258.175 1429.3 255.478L1429.26 255.445Z" fill="white"/>
<path d="M1311.31 235.093L1374.49 68.2235C1375.45 65.6763 1377.87 64 1380.58 64H1422.86C1425.57 64 1428.01 65.6927 1428.97 68.2564L1491.45 235.126C1493.05 239.415 1489.89 244 1485.33 244H1447.18C1444.37 244 1441.87 242.176 1440.99 239.481L1395.25 99.6615C1393.86 95.4215 1397 91.0501 1401.44 91.0501C1405.89 91.0501 1409.06 95.4544 1407.62 99.7108L1360.72 239.53C1359.82 242.192 1357.34 244 1354.54 244H1317.4C1312.83 244 1309.67 239.399 1311.31 235.109V235.093ZM1352.21 207.09V180.779C1352.21 177.147 1355.13 174.222 1358.73 174.222H1445.76C1449.36 174.222 1452.28 177.164 1452.28 180.779V207.09C1452.28 210.705 1449.36 213.647 1445.76 213.647H1358.73C1355.12 213.647 1352.21 210.705 1352.21 207.09Z" fill="black"/>
<path d="M134.88 261C125.525 261 117.282 257.473 111.072 250.81C105.052 244.363 101.87 236.132 101.87 227C101.87 217.868 105.091 209.324 111.187 202.935C117.378 196.449 125.564 193 134.861 193C144.158 193 152.343 196.429 158.535 202.916C164.65 209.324 167.87 217.633 167.87 226.98C167.87 236.328 164.688 244.323 158.669 250.79C152.439 257.453 144.215 260.98 134.861 260.98H134.88V261Z" fill="white"/>
<path d="M141.87 244C136.03 244 131.223 242.001 127.49 238.048C123.736 234.072 121.87 229.23 121.87 223.5C121.87 217.77 123.736 212.684 127.49 208.819C131.223 204.932 136.03 203 141.87 203C147.71 203 152.496 204.932 156.25 208.819C159.982 212.706 161.87 217.592 161.87 223.5C161.87 229.408 160.004 234.072 156.25 238.048C152.496 242.023 147.71 244 141.87 244Z" fill="black"/>
<path d="M1284.89 115C1271.56 115 1259.83 110.122 1250.97 100.907C1242.39 92.0033 1237.87 80.6114 1237.87 67.9918C1237.87 55.3723 1242.46 43.5548 1251.13 34.7325C1259.96 25.763 1271.61 21 1284.85 21C1298.1 21 1309.75 25.7466 1318.57 34.6998C1327.28 43.5548 1331.87 55.0449 1331.87 67.9591C1331.87 80.8732 1327.33 91.9378 1318.77 100.875C1309.9 110.09 1298.18 114.967 1284.85 114.967L1284.89 115Z" fill="white"/>
<path d="M1284.87 104C1274.36 104 1265.7 100.443 1258.99 93.395C1252.23 86.314 1248.87 77.7016 1248.87 67.4918C1248.87 57.282 1252.23 48.2249 1258.99 41.358C1265.7 34.4417 1274.36 31 1284.87 31C1295.38 31 1303.99 34.4417 1310.75 41.358C1317.46 48.2743 1320.87 56.9856 1320.87 67.4918C1320.87 77.998 1317.51 86.314 1310.75 93.395C1303.99 100.476 1295.38 104 1284.87 104Z" fill="#4CC8ED"/>
<path d="M1450.34 277.105L1525.58 9.12037C1527.09 3.7236 1532 0 1537.59 0H1572.38C1580.65 0 1586.64 7.92291 1584.4 15.895L1509.16 283.88C1507.65 289.276 1502.74 293 1497.15 293H1462.36C1454.09 293 1448.1 285.077 1450.34 277.105Z" fill="white"/>
<path d="M1465.09 260.043L1538.39 26.7263C1540.12 21.1584 1546.41 17.0924 1553.77 16.7682C1564.63 16.2894 1572.86 23.9886 1570.27 32.2146L1496.97 265.531C1495.24 271.099 1488.95 275.165 1481.59 275.489C1470.73 275.968 1462.5 268.269 1465.09 260.043Z" fill="black"/>
<path d="M97.8702 122L18.4366 169.167C14.5494 171.475 14.5145 177.09 18.3726 179.446L97.8702 228" stroke="black" stroke-width="31" stroke-linecap="round"/>
<path d="M1568.87 228L1648.3 180.833C1652.19 178.525 1652.23 172.91 1648.37 170.554L1568.87 122" stroke="black" stroke-width="31" stroke-linecap="round"/>
</svg>
